HIERARCHY
ROOT Hips
{
	OFFSET 0.00000 0.00000 0.00000
	CHANNELS 6 Xposition Yposition Zposition Zrotation Yrotation Xrotation 
	JOINT LHipJoint
	{
		OFFSET 0 0 0
		CHANNELS 3 Zrotation Yrotation Xrotation
		JOINT LeftUpLeg
		{
			OFFSET 1.48831 -1.59570 0.95625
			CHANNELS 3 Zrotation Yrotation Xrotation
			JOINT LeftLeg
			{
				OFFSET 2.20856 -6.06797 0.00000
				CHANNELS 3 Zrotation Yrotation Xrotation
				JOINT LeftFoot
				{
					OFFSET 2.62924 -7.22379 0.00000
					CHANNELS 3 Zrotation Yrotation Xrotation
					JOINT LeftToeBase
					{
						OFFSET 0.16802 -0.46163 2.41673
						CHANNELS 3 Zrotation Yrotation Xrotation
						End Site
						{
							OFFSET 0.00000 -0.00000 1.23760
						}
					}
				}
			}
		}
	}
	JOINT RHipJoint
	{
		OFFSET 0 0 0
		CHANNELS 3 Zrotation Yrotation Xrotation
		JOINT RightUpLeg
		{
			OFFSET -1.56796 -1.59570 0.95625
			CHANNELS 3 Zrotation Yrotation Xrotation
			JOINT RightLeg
			{
				OFFSET -2.29239 -6.29829 0.00000
				CHANNELS 3 Zrotation Yrotation Xrotation
				JOINT RightFoot
				{
					OFFSET -2.66963 -7.33475 0.00000
					CHANNELS 3 Zrotation Yrotation Xrotation
					JOINT RightToeBase
					{
						OFFSET -0.18185 -0.49964 2.34359
						CHANNELS 3 Zrotation Yrotation Xrotation
						End Site
						{
							OFFSET -0.00000 -0.00000 1.20477
						}
					}
				}
			}
		}
	}
	JOINT LowerBack
	{
		OFFSET 0 0 0
		CHANNELS 3 Zrotation Yrotation Xrotation
		JOINT Spine
		{
			OFFSET 0.03505 2.15832 -0.34324
			CHANNELS 3 Zrotation Yrotation Xrotation
			JOINT Spine1
			{
				OFFSET -0.01089 2.17963 0.04689
				CHANNELS 3 Zrotation Yrotation Xrotation
				JOINT Neck
				{
					OFFSET 0 0 0
					CHANNELS 3 Zrotation Yrotation Xrotation
					JOINT Neck1
					{
						OFFSET 0.04686 1.69404 0.22159
						CHANNELS 3 Zrotation Yrotation Xrotation
						JOINT Head
						{
							OFFSET 0.00265 1.69305 -0.01513
							CHANNELS 3 Zrotation Yrotation Xrotation
							End Site
							{
								OFFSET -0.00415 1.80215 -0.03034
							}
						}
					}
				}
				JOINT LeftShoulder
				{
					OFFSET 0 0 0
					CHANNELS 3 Zrotation Yrotation Xrotation
					JOINT LeftArm
					{
						OFFSET 3.67184 1.11724 -0.19002
						CHANNELS 3 Zrotation Yrotation Xrotation
						JOINT LeftForeArm
						{
							OFFSET 5.17714 -0.00000 -0.00000
							CHANNELS 3 Zrotation Yrotation Xrotation
							JOINT LeftHand
							{
								OFFSET 3.43679 -0.00000 -0.00000
								CHANNELS 3 Zrotation Yrotation Xrotation
								JOINT LeftFingerBase
								{
									OFFSET 0 0 0
									CHANNELS 3 Zrotation Yrotation Xrotation
									JOINT LeftHandIndex1
									{
										OFFSET 0.57312 -0.00000 -0.00000
										CHANNELS 3 Zrotation Yrotation Xrotation
										End Site
										{
											OFFSET 0.46206 -0.00000 -0.00000
										}
									}
								}
								JOINT LThumb
								{
									OFFSET 0 0 0
									CHANNELS 3 Zrotation Yrotation Xrotation
									End Site
									{
										OFFSET 0.46912 -0.00000 0.46912
									}
								}
							}
						}
					}
				}
				JOINT RightShoulder
				{
					OFFSET 0 0 0
					CHANNELS 3 Zrotation Yrotation Xrotation
					JOINT RightArm
					{
						OFFSET -3.59596 0.95831 -0.26050
						CHANNELS 3 Zrotation Yrotation Xrotation
						JOINT RightForeArm
						{
							OFFSET -5.23908 -0.00000 -0.00000
							CHANNELS 3 Zrotation Yrotation Xrotation
							JOINT RightHand
							{
								OFFSET -3.46485 -0.00000 -0.00000
								CHANNELS 3 Zrotation Yrotation Xrotation
								JOINT RightFingerBase
								{
									OFFSET 0 0 0
									CHANNELS 3 Zrotation Yrotation Xrotation
									JOINT RightHandIndex1
									{
										OFFSET -0.60875 -0.00000 -0.00000
										CHANNELS 3 Zrotation Yrotation Xrotation
										End Site
										{
											OFFSET -0.49079 -0.00000 -0.00000
										}
									}
								}
								JOINT RThumb
								{
									OFFSET 0 0 0
									CHANNELS 3 Zrotation Yrotation Xrotation
									End Site
									{
										OFFSET -0.49829 -0.00000 0.49829
									}
								}
							}
						}
					}
				}
			}
		}
	}
}
MOTION
Frames: 13
Frame Time: .0083333
-3.6863 16.3262 -2.8165 -520.4800 -82.2242 513.0130 0.0000 0.0000 0.0000 -9.1715 7.3963 2.5236 0.9093 6.0763 17.0061 0.5532 3.2371 -15.6023 0.1825 -2.7514 -7.5875 0.0000 0.0000 0.0000 11.9083 7.9233 -0.9164 -2.4939 -9.8267 28.4175 -1.2034 -21.8918 -37.8263 -0.1524 -2.5155 6.9326 0.7105 -0.2407 -0.4303 -0.9941 -0.3302 -0.6862 -1.4157 -0.1735 -0.4709 -0.9293 0.7273 -4.0702 -1.5585 -0.2583 35.0836 -0.6210 -1.1705 12.2186 0.0000 -0.0000 0.0000 -75.1780 -28.2576 55.3919 29.6106 -40.5573 -11.1555 -0.0000 0.0000 -33.2874 7.1623 11.1928 1.3973 -7.1250 0.0000 -0.0000 -17.5122 40.6154 1.9619 0.0000 -0.0000 0.0000 86.1029 2.3938 22.5972 -17.0900 26.9763 -4.1281 0.0000 0.0000 9.6351 -2.0907 -2.5524 0.0931 7.1250 -0.0000 -0.0000 19.5088 -32.0803 6.5019
-3.6739 16.3277 -2.8150 -519.8550 -82.1925 512.4340 0.0000 0.0000 0.0000 -9.1016 7.3045 2.4518 0.9115 6.0837 17.0275 0.5491 3.3199 -15.6018 0.1842 -2.7644 -7.6236 0.0000 0.0000 0.0000 11.9578 7.7798 -1.0020 -2.4774 -9.7967 28.3210 -1.1827 -21.8583 -37.6860 -0.1455 -2.4580 6.7733 0.8737 -0.2169 -0.5012 -1.0449 -0.2977 -0.5049 -1.5602 -0.1552 -0.2458 -0.9189 0.7750 -4.1312 -1.6251 -0.1989 35.3901 -0.6494 -1.1639 12.3619 -0.0000 -0.0000 0.0000 -75.1443 -28.3628 55.2388 29.4259 -40.3962 -11.0357 -0.0000 0.0000 -33.2917 7.1852 11.2977 1.4148 -7.1250 0.0000 -0.0000 -17.5223 40.7179 1.9171 -0.0000 -0.0000 0.0000 86.1082 2.6370 22.7416 -17.2770 27.2215 -4.2133 0.0000 0.0000 9.3270 -2.6219 -2.6258 0.1202 7.1250 -0.0000 -0.0000 19.1154 -32.1714 6.3123
-3.6619 16.3304 -2.8161 -519.7680 -82.1652 512.4290 0.0000 0.0000 0.0000 -9.1132 7.1933 2.3812 0.9076 6.0708 16.9898 0.5413 3.4649 -15.5945 0.1847 -2.7681 -7.6337 0.0000 0.0000 0.0000 11.9425 7.7024 -1.1469 -2.4679 -9.7792 28.2647 -1.1673 -21.8119 -37.5585 -0.1394 -2.4067 6.6311 0.9464 -0.1829 -0.6361 -1.1022 -0.2521 -0.3185 -1.6605 -0.1296 0.0216 -0.9185 0.8077 -4.1924 -1.6764 -0.1598 35.6513 -0.6715 -1.1635 12.4868 0.0000 -0.0000 0.0000 -75.1209 -28.4682 55.0748 29.2070 -40.2039 -10.8941 -0.0000 0.0000 -33.2470 7.2097 11.4000 1.4323 -7.1250 0.0000 -0.0000 -17.5304 40.8182 1.8731 0.0000 -0.0000 0.0000 86.0954 2.9056 22.8834 -17.4650 27.4667 -4.2996 0.0000 0.0000 8.9819 -3.1662 -2.6931 0.1489 7.1250 -0.0000 -0.0000 18.7091 -32.2573 6.1235
-3.6500 16.3343 -2.8203 -520.2830 -82.1497 513.0560 0.0000 0.0000 0.0000 -9.2106 7.0828 2.3160 0.8963 6.0339 16.8827 0.5300 3.6484 -15.5688 0.1837 -2.7604 -7.6124 0.0000 0.0000 0.0000 11.8530 7.6936 -1.3465 -2.4664 -9.7766 28.2564 -1.1633 -21.7379 -37.4592 -0.1347 -2.3658 6.5178 0.9051 -0.1427 -0.8124 -1.1644 -0.1981 -0.1373 -1.7016 -0.0994 0.3077 -0.9286 0.8283 -4.2493 -1.7150 -0.1371 35.8727 -0.6878 -1.1684 12.5945 0.0000 0.0000 0.0000 -75.1080 -28.5543 54.9016 28.9579 -39.9833 -10.7337 -0.0000 0.0000 -33.1671 7.2562 11.4728 1.4507 -7.1250 0.0000 -0.0000 -17.5116 40.8921 1.8378 0.0000 0.0000 0.0000 86.0607 3.1805 23.0321 -17.6526 27.7100 -4.3865 0.0000 0.0000 8.6104 -3.7118 -2.7488 0.1783 7.1250 -0.0000 -0.0000 18.2981 -32.3320 5.9411
-3.6379 16.3388 -2.8271 -521.2110 -82.1510 514.1190 0.0000 0.0000 0.0000 -9.3669 6.9769 2.2503 0.8795 5.9787 16.7226 0.5166 3.8368 -15.5229 0.1806 -2.7373 -7.5482 0.0000 0.0000 0.0000 11.7070 7.7235 -1.5912 -2.4718 -9.7865 28.2880 -1.1687 -21.6353 -37.3778 -0.1309 -2.3324 6.4252 0.7770 -0.1051 -0.9970 -1.2281 -0.1464 0.0283 -1.6953 -0.0711 0.5826 -0.9408 0.8403 -4.3056 -1.7494 -0.1257 36.0694 -0.7029 -1.1770 12.6919 0.0000 -0.0000 0.0000 -75.1028 -28.6015 54.7187 28.6834 -39.7378 -10.5577 -0.0000 0.0000 -33.0617 7.3221 11.5234 1.4704 -7.1250 0.0000 -0.0000 -17.4699 40.9467 1.8088 0.0000 -0.0000 0.0000 86.0066 3.4451 23.1900 -17.8373 27.9484 -4.4727 0.0000 0.0000 8.2268 -4.2603 -2.7863 0.2075 7.1250 -0.0000 -0.0000 17.8799 -32.3897 5.7667
-3.6256 16.3428 -2.8352 -522.2930 -82.1451 515.3270 0.0000 0.0000 0.0000 -9.5287 6.9032 2.1979 0.8610 5.9171 16.5441 0.5037 3.9998 -15.4688 0.1760 -2.7026 -7.4518 0.0000 0.0000 0.0000 11.5448 7.7561 -1.8419 -2.4808 -9.8030 28.3410 -1.1784 -21.5025 -37.2872 -0.1269 -2.2967 6.3265 0.6229 -0.0688 -1.1416 -1.2866 -0.0954 0.1772 -1.6686 -0.0440 0.8180 -0.9557 0.8450 -4.3491 -1.7768 -0.1256 36.2405 -0.7155 -1.1893 12.7760 -0.0000 -0.0000 0.0000 -75.1068 -28.5946 54.5258 28.3862 -39.4694 -10.3683 -0.0000 0.0000 -32.9468 7.3768 11.5565 1.4857 -7.1250 0.0000 -0.0000 -17.4329 40.9833 1.7883 -0.0000 -0.0000 0.0000 85.9351 3.6807 23.3604 -18.0190 28.1815 -4.5582 0.0000 0.0000 7.8277 -4.8068 -2.8128 0.2364 7.1250 -0.0000 -0.0000 17.4598 -32.4365 5.5987
-3.6126 16.3459 -2.8439 -523.2330 -82.1379 516.3710 0.0000 0.0000 0.0000 -9.6561 6.8528 2.1504 0.8445 5.8616 16.3834 0.4933 4.1124 -15.4125 0.1699 -2.6552 -7.3202 0.0000 0.0000 0.0000 11.3990 7.7472 -2.0794 -2.4901 -9.8199 28.3954 -1.1891 -21.3437 -37.1748 -0.1223 -2.2543 6.2088 0.4913 -0.0406 -1.2126 -1.3357 -0.0549 0.3041 -1.6447 -0.0230 0.9892 -0.9679 0.8427 -4.3754 -1.8010 -0.1364 36.3892 -0.7281 -1.2051 12.8468 -0.0000 -0.0000 0.0000 -75.1198 -28.5222 54.3192 28.0690 -39.1797 -10.1672 -0.0000 0.0000 -32.8065 7.3625 11.6211 1.4910 -7.1250 0.0000 -0.0000 -17.4634 41.0439 1.7646 -0.0000 -0.0000 0.0000 85.8535 3.8733 23.5370 -18.1983 28.4103 -4.6432 0.0000 0.0000 7.4174 -5.3478 -2.8350 0.2653 7.1250 -0.0000 -0.0000 17.0422 -32.4789 5.4354
-3.5984 16.3478 -2.8526 -523.8450 -82.1280 517.0620 0.0000 0.0000 0.0000 -9.7234 6.8209 2.0930 0.8328 5.8217 16.2678 0.4854 4.1759 -15.3558 0.1644 -2.6123 -7.2013 0.0000 0.0000 0.0000 11.2950 7.6840 -2.2939 -2.4969 -9.8323 28.4355 -1.1970 -21.1747 -37.0380 -0.1167 -2.2028 6.0664 0.4162 -0.0219 -1.1971 -1.3722 -0.0282 0.4072 -1.6395 -0.0092 1.0870 -0.9813 0.8320 -4.3797 -1.8151 -0.1622 36.5112 -0.7375 -1.2257 12.9014 0.0000 -0.0000 0.0000 -75.1410 -28.3798 54.0945 27.7373 -38.8733 -9.9584 -0.0000 0.0000 -32.6527 7.2727 11.7215 1.4851 -7.1250 0.0000 -0.0000 -17.5688 41.1321 1.7363 0.0000 -0.0000 0.0000 85.7659 4.0203 23.7150 -18.3729 28.6321 -4.7266 0.0000 0.0000 6.9939 -5.8645 -2.8576 0.2934 7.1250 -0.0000 -0.0000 16.6426 -32.5206 5.2805
-3.5831 16.3487 -2.8614 -524.1840 -82.1230 517.4600 0.0000 0.0000 0.0000 -9.7430 6.8005 2.0160 0.8266 5.8006 16.2070 0.4802 4.1938 -15.3006 0.1602 -2.5784 -7.1072 0.0000 0.0000 0.0000 11.2226 7.5660 -2.4854 -2.5001 -9.8381 28.4539 -1.2010 -21.0055 -36.8813 -0.1105 -2.1431 5.9014 0.3915 -0.0124 -1.0907 -1.4007 -0.0149 0.4805 -1.6546 -0.0024 1.1028 -1.0001 0.8124 -4.3585 -1.8103 -0.2060 36.6083 -0.7401 -1.2521 12.9396 -0.0000 -0.0000 0.0000 -75.1721 -28.1604 53.8480 27.3977 -38.5558 -9.7460 -0.0000 0.0000 -32.4896 7.1189 11.8652 1.4710 -7.1250 0.0000 -0.0000 -17.7417 41.2558 1.6985 -0.0000 -0.0000 0.0000 85.6774 4.1125 23.8905 -18.5429 28.8468 -4.8083 0.0000 0.0000 6.5602 -6.3731 -2.8814 0.3217 7.1250 -0.0000 -0.0000 16.2487 -32.5629 5.1289
-3.5666 16.3494 -2.8705 -524.2460 -82.1300 517.5800 0.0000 0.0000 0.0000 -9.7224 6.7700 1.9028 0.8255 5.7968 16.1959 0.4765 4.1817 -15.2448 0.1568 -2.5512 -7.0317 0.0000 0.0000 0.0000 11.1814 7.4094 -2.6707 -2.4995 -9.8371 28.4507 -1.2026 -20.8454 -36.7225 -0.1039 -2.0785 5.7226 0.4111 -0.0141 -0.9179 -1.4207 -0.0178 0.5244 -1.6860 -0.0038 1.0508 -1.0263 0.7840 -4.3145 -1.7850 -0.2669 36.6737 -0.7343 -1.2836 12.9590 0.0000 -0.0000 0.0000 -75.2110 -27.8767 53.5790 27.0519 -38.2286 -9.5312 -0.0000 0.0000 -32.3418 6.8958 12.0562 1.4470 -7.1250 0.0000 -0.0000 -17.9883 41.4179 1.6491 0.0000 -0.0000 0.0000 85.5897 4.1606 24.0553 -18.7078 29.0539 -4.8881 0.0000 0.0000 6.1353 -6.8591 -2.9088 0.3497 7.1250 -0.0000 -0.0000 15.8723 -32.6078 4.9837
-3.5491 16.3501 -2.8800 -524.1540 -82.1532 517.5540 0.0000 0.0000 0.0000 -9.6844 6.7203 1.7559 0.8281 5.8058 16.2219 0.4734 4.1559 -15.1880 0.1539 -2.5275 -6.9660 0.0000 0.0000 0.0000 11.1550 7.2307 -2.8570 -2.4959 -9.8305 28.4296 -1.2004 -20.7080 -36.5672 -0.0971 -2.0095 5.5319 0.4534 -0.0260 -0.6989 -1.4353 -0.0348 0.5430 -1.7247 -0.0126 0.9465 -1.0537 0.7468 -4.2642 -1.7474 -0.3431 36.7180 -0.7246 -1.3195 12.9677 0.0000 0.0000 0.0000 -75.2583 -27.5387 53.2893 26.7027 -37.8942 -9.3160 -0.0000 0.0000 -32.2306 6.6787 12.2544 1.4237 -7.1250 0.0000 -0.0000 -18.2331 41.5868 1.5942 0.0000 0.0000 0.0000 85.5024 4.1754 24.2107 -18.8625 29.2474 -4.9635 0.0000 0.0000 5.7201 -7.3382 -2.9263 0.3767 7.1250 -0.0000 -0.0000 15.4987 -32.6427 4.8450
-3.5312 16.3511 -2.8901 -523.9800 -82.1832 517.4450 0.0000 0.0000 0.0000 -9.6361 6.6580 1.5946 0.8330 5.8226 16.2705 0.4705 4.1307 -15.1323 0.1519 -2.5112 -6.9208 0.0000 0.0000 0.0000 11.1409 7.0480 -3.0347 -2.4903 -9.8203 28.3966 -1.1963 -20.5913 -36.4240 -0.0899 -1.9334 5.3217 0.5100 -0.0430 -0.4479 -1.4438 -0.0586 0.5485 -1.7652 -0.0249 0.8105 -1.0859 0.7001 -4.2187 -1.6967 -0.4343 36.7439 -0.7102 -1.3602 12.9693 -0.0000 -0.0000 0.0000 -75.3148 -27.1665 52.9871 26.3467 -37.5490 -9.0981 -0.0000 0.0000 -32.1713 6.5101 12.4189 1.4058 -7.1250 0.0000 -0.0000 -18.4271 41.7276 1.5459 -0.0000 -0.0000 0.0000 85.4129 4.1697 24.3521 -19.0075 29.4280 -5.0345 0.0000 0.0000 5.3222 -7.7935 -2.9539 0.4041 7.1250 -0.0000 -0.0000 15.1449 -32.6865 4.7107
-3.5132 16.3519 -2.9007 -523.7220 -82.2190 517.2510 0.0000 0.0000 0.0000 -9.5784 6.5836 1.4333 0.8387 5.8418 16.3262 0.4668 4.1145 -15.0741 0.1509 -2.5034 -6.8990 0.0000 0.0000 0.0000 11.1411 6.8622 -3.2037 -2.4838 -9.8083 28.3582 -1.1878 -20.5034 -36.2875 -0.0819 -1.8460 5.0801 0.5793 -0.0668 -0.1822 -1.4442 -0.0914 0.5501 -1.8044 -0.0418 0.6620 -1.1166 0.6476 -4.1827 -1.6445 -0.5324 36.7545 -0.6958 -1.4025 12.9661 0.0000 0.0000 0.0000 -75.3766 -26.7754 52.6803 25.9803 -37.1892 -8.8757 -0.0000 0.0000 -32.1602 6.4157 12.5530 1.4000 -7.1250 0.0000 -0.0000 -18.5491 41.8463 1.5004 0.0000 0.0000 0.0000 85.3186 4.1579 24.4803 -19.1405 29.5929 -5.1001 0.0000 0.0000 4.9565 -8.1983 -2.9948 0.4313 7.1250 -0.0000 -0.0000 14.8326 -32.7414 4.5872
